REM DIRINDEX 1\5,1\2\6,1\2\7,1\3\8,1\3\9,1\4\10,1\4\11,1\4\12
REM DIRNAME folder01,folder02,folder03,folder04,folder05,folder06,folder07,folder08,folder09,folder10,folder11,folder12
TITLE ""
FILE "EJE_DB3000_5th_2A_39.mp3" MP3
  TRACK 01 AUDIO
    TITLE "0:"
    INDEX 01 00:00:00
  TRACK 02 AUDIO
    TITLE "10:cjc026_07938"
    INDEX 01 00:00:03
  TRACK 03 AUDIO
    TITLE "0:"
    INDEX 01 00:00:64
  TRACK 04 AUDIO
    TITLE "11:cjc026_07939"
    INDEX 01 00:01:15
  TRACK 05 AUDIO
    TITLE "0:"
    INDEX 01 00:02:08
  TRACK 06 AUDIO
    TITLE "12:cjc026_07940"
    INDEX 01 00:02:32
  TRACK 07 AUDIO
    TITLE "0:"
    INDEX 01 00:03:15
  TRACK 08 AUDIO
    TITLE "10:cjc026_07941"
    INDEX 01 00:03:43
  TRACK 09 AUDIO
    TITLE "0:"
    INDEX 01 00:04:35
  TRACK 10 AUDIO
    TITLE "11:cjc026_07942"
    INDEX 01 00:04:62
  TRACK 11 AUDIO
    TITLE "0:"
    INDEX 01 00:05:52
  TRACK 12 AUDIO
    TITLE "12:cjc026_07943"
    INDEX 01 00:06:02
  TRACK 13 AUDIO
    TITLE "0:"
    INDEX 01 00:06:71
  TRACK 14 AUDIO
    TITLE "10:cjc026_07944"
    INDEX 01 00:07:23
  TRACK 15 AUDIO
    TITLE "0:"
    INDEX 01 00:08:15
  TRACK 16 AUDIO
    TITLE "11:cjc026_07945"
    INDEX 01 00:08:42
  TRACK 17 AUDIO
    TITLE "0:"
    INDEX 01 00:09:34
  TRACK 18 AUDIO
    TITLE "12:cjc026_07946"
    INDEX 01 00:09:59
  TRACK 19 AUDIO
    TITLE "0:"
    INDEX 01 00:10:51
  TRACK 20 AUDIO
    TITLE "10:cjc026_07947"
    INDEX 01 00:11:03
  TRACK 21 AUDIO
    TITLE "0:"
    INDEX 01 00:11:58
  TRACK 22 AUDIO
    TITLE "11:cjc026_07948"
    INDEX 01 00:12:12
  TRACK 23 AUDIO
    TITLE "0:"
    INDEX 01 00:13:10
  TRACK 24 AUDIO
    TITLE "12:cjc026_07949"
    INDEX 01 00:13:35
  TRACK 25 AUDIO
    TITLE "0:"
    INDEX 01 00:14:11
  TRACK 26 AUDIO
    TITLE "10:cjc026_07950"
    INDEX 01 00:14:45
  TRACK 27 AUDIO
    TITLE "0:"
    INDEX 01 00:15:38
  TRACK 28 AUDIO
    TITLE "11:cjc026_07951"
    INDEX 01 00:15:64
  TRACK 29 AUDIO
    TITLE "0:"
    INDEX 01 00:16:69
  TRACK 30 AUDIO
    TITLE "12:cjc026_07952"
    INDEX 01 00:17:20
  TRACK 31 AUDIO
    TITLE "0:"
    INDEX 01 00:18:13
  TRACK 32 AUDIO
    TITLE "10:cjc026_07953"
    INDEX 01 00:18:39
  TRACK 33 AUDIO
    TITLE "0:"
    INDEX 01 00:19:28
  TRACK 34 AUDIO
    TITLE "11:cjc026_07954"
    INDEX 01 00:19:54
  TRACK 35 AUDIO
    TITLE "0:"
    INDEX 01 00:20:59
  TRACK 36 AUDIO
    TITLE "12:cjc026_07955"
    INDEX 01 00:21:09
  TRACK 37 AUDIO
    TITLE "0:"
    INDEX 01 00:21:74
  TRACK 38 AUDIO
    TITLE "10:cjc026_07956"
    INDEX 01 00:22:25
  TRACK 39 AUDIO
    TITLE "0:"
    INDEX 01 00:23:26
  TRACK 40 AUDIO
    TITLE "11:cjc026_07957"
    INDEX 01 00:23:51
  TRACK 41 AUDIO
    TITLE "0:"
    INDEX 01 00:24:39
  TRACK 42 AUDIO
    TITLE "12:cjc026_07958"
    INDEX 01 00:24:65
  TRACK 43 AUDIO
    TITLE "0:"
    INDEX 01 00:25:68
  TRACK 44 AUDIO
    TITLE "10:cjc026_07959"
    INDEX 01 00:26:17
  TRACK 45 AUDIO
    TITLE "0:"
    INDEX 01 00:27:08
  TRACK 46 AUDIO
    TITLE "11:cjc026_07960"
    INDEX 01 00:27:34
  TRACK 47 AUDIO
    TITLE "0:"
    INDEX 01 00:28:45
  TRACK 48 AUDIO
    TITLE "12:cjc026_07961"
    INDEX 01 00:28:70
  TRACK 49 AUDIO
    TITLE "0:"
    INDEX 01 00:29:60
  TRACK 50 AUDIO
    TITLE "10:cjc026_07962"
    INDEX 01 00:30:10
  TRACK 51 AUDIO
    TITLE "0:"
    INDEX 01 00:31:12
  TRACK 52 AUDIO
    TITLE "11:cjc026_07963"
    INDEX 01 00:31:35
  TRACK 53 AUDIO
    TITLE "0:"
    INDEX 01 00:32:37
  TRACK 54 AUDIO
    TITLE "12:cjc026_07964"
    INDEX 01 00:32:62
  TRACK 55 AUDIO
    TITLE "0:"
    INDEX 01 00:33:62
  TRACK 56 AUDIO
    TITLE "10:cjc026_07965"
    INDEX 01 00:34:14
  TRACK 57 AUDIO
    TITLE "0:"
    INDEX 01 00:35:14
  TRACK 58 AUDIO
    TITLE "11:cjc026_07966"
    INDEX 01 00:35:39
  TRACK 59 AUDIO
    TITLE "0:"
    INDEX 01 00:36:33
  TRACK 60 AUDIO
    TITLE "12:cjc026_07967"
    INDEX 01 00:36:58
  TRACK 61 AUDIO
    TITLE "0:"
    INDEX 01 00:37:57
  TRACK 62 AUDIO
    TITLE "10:cjc026_07968"
    INDEX 01 00:38:10
  TRACK 63 AUDIO
    TITLE "0:"
    INDEX 01 00:39:05
  TRACK 64 AUDIO
    TITLE "11:cjc026_07969"
    INDEX 01 00:39:31
  TRACK 65 AUDIO
    TITLE "0:"
    INDEX 01 00:40:50
  TRACK 66 AUDIO
    TITLE "12:cjc026_07970"
    INDEX 01 00:41:00
  TRACK 67 AUDIO
    TITLE "0:"
    INDEX 01 00:41:73
  TRACK 68 AUDIO
    TITLE "10:cjc026_07971"
    INDEX 01 00:42:23
  TRACK 69 AUDIO
    TITLE "0:"
    INDEX 01 00:43:27
  TRACK 70 AUDIO
    TITLE "11:cjc026_07972"
    INDEX 01 00:43:52
  TRACK 71 AUDIO
    TITLE "0:"
    INDEX 01 00:44:44
  TRACK 72 AUDIO
    TITLE "12:cjc026_07973"
    INDEX 01 00:44:71
  TRACK 73 AUDIO
    TITLE "0:"
    INDEX 01 00:46:00
